<svg width="1440" height="118" viewBox="0 0 1440 118" fill="none" xmlns="http://www.w3.org/2000/svg">
<path d="M0 19.6332L13.7847 17.3246C27.5694 14.6145 55.1389 10.5995 82.7083 14.9156C110.278 19.6332 137.847 33.6856 165.417 45.4294C192.986 56.7717 220.556 66.8091 248.125 59.4818C275.694 52.7567 303.264 28.6669 330.833 24.3508C358.403 19.6332 385.972 33.6856 413.542 35.9942C441.111 38.7043 468.681 28.6669 496.25 35.9942C523.819 42.7193 551.389 66.8091 578.958 71.1252C606.528 75.8428 634.097 61.7904 661.667 57.0728C689.236 52.7567 716.806 56.7717 744.375 50.0466C771.944 42.7193 799.514 24.6519 827.083 12.607C854.653 0.562109 882.222 -3.45286 909.792 7.88943C937.361 19.6332 964.931 47.738 992.5 50.0466C1020.07 52.7567 1047.64 28.6669 1075.21 24.3508C1102.78 19.6332 1130.35 33.6856 1157.92 47.738C1185.49 61.7904 1213.06 75.8428 1240.62 85.1776C1268.19 94.9139 1295.76 98.9289 1323.33 80.5604C1350.9 61.7904 1378.47 19.6332 1406.04 10.2984C1433.61 0.562109 1461.18 24.6519 1488.75 43.0204C1516.32 61.7904 1543.89 75.8428 1571.46 78.1514C1599.03 80.8615 1626.6 70.8241 1654.17 57.0728C1681.74 42.7193 1709.31 24.6519 1736.88 24.3508C1764.44 24.6519 1792.01 42.7193 1819.58 40.7118C1847.15 38.7043 1874.72 14.6145 1902.29 5.58082C1929.86 -3.45286 1957.43 0.56211 1971.22 3.27221L1985 5.58082V118H1971.22C1957.43 118 1929.86 118 1902.29 118C1874.72 118 1847.15 118 1819.58 118C1792.01 118 1764.44 118 1736.88 118C1709.31 118 1681.74 118 1654.17 118C1626.6 118 1599.03 118 1571.46 118C1543.89 118 1516.32 118 1488.75 118C1461.18 118 1433.61 118 1406.04 118C1378.47 118 1350.9 118 1323.33 118C1295.76 118 1268.19 118 1240.62 118C1213.06 118 1185.49 118 1157.92 118C1130.35 118 1102.78 118 1075.21 118C1047.64 118 1020.07 118 992.5 118C964.931 118 937.361 118 909.792 118C882.222 118 854.653 118 827.083 118C799.514 118 771.944 118 744.375 118C716.806 118 689.236 118 661.667 118C634.097 118 606.528 118 578.958 118C551.389 118 523.819 118 496.25 118C468.681 118 441.111 118 413.542 118C385.972 118 358.403 118 330.833 118C303.264 118 275.694 118 248.125 118C220.556 118 192.986 118 165.417 118C137.847 118 110.278 118 82.7083 118C55.1389 118 27.5694 118 13.7847 118H0V19.6332Z" fill="url(#paint0_linear_0_4)"/>
<defs>
<linearGradient id="paint0_linear_0_4" x1="0" y1="118" x2="0" y2="0" gradientUnits="userSpaceOnUse">
<stop stop-color="#141E61"/>
<stop offset="1" stop-color="#141E61"/>
</linearGradient>
</defs>
</svg>
